<svg id="svg" version="1.1" width="400" height="400" viewBox="0 0 400 400" xmlns="http://www.w3.org/2000/svg" xmlns:xlink="http://www.w3.org/1999/xlink" ><g id="svgg"><path id="path0" d="M78.212 175.740 C 77.999 176.220,78.063 176.592,78.393 176.796 C 78.684 176.975,78.768 177.327,78.590 177.616 C 78.343 178.016,78.185 178.004,77.831 177.561 C 75.689 174.874,73.862 175.498,67.959 180.933 C 66.724 182.070,64.330 184.260,62.638 185.800 C 60.947 187.340,58.517 189.590,57.240 190.800 C 53.885 193.978,47.605 199.720,46.160 200.931 C 45.478 201.503,43.915 202.922,42.688 204.085 C 39.159 207.429,33.092 213.061,32.044 213.965 C 30.990 214.875,25.710 219.693,23.019 222.200 C 20.186 224.839,13.884 230.634,12.600 231.781 C 9.596 234.465,5.355 238.398,3.199 240.500 C 1.901 241.765,0.651 242.800,0.420 242.800 C -0.255 242.800,-0.063 244.064,0.700 244.643 C 1.357 245.142,1.351 245.178,0.600 245.223 C 0.075 245.255,0.247 245.401,1.100 245.648 C 2.000 245.907,2.400 246.265,2.400 246.811 C 2.400 247.245,2.400 247.690,2.400 247.800 C 2.400 247.910,2.265 247.997,2.100 247.992 C 1.935 247.988,1.800 247.644,1.800 247.228 C 1.800 246.813,1.665 246.336,1.500 246.169 C 1.335 246.003,1.200 246.077,1.200 246.333 C 1.200 246.590,0.930 246.800,0.600 246.800 C 0.270 246.800,0.000 246.980,0.000 247.200 C 0.000 247.420,0.248 247.600,0.551 247.600 C 0.854 247.600,1.326 247.870,1.600 248.200 C 2.269 249.007,3.100 248.958,3.324 248.100 C 3.425 247.715,3.528 248.075,3.554 248.900 C 3.591 250.118,3.750 250.400,4.400 250.400 C 4.840 250.400,5.200 250.657,5.200 250.972 C 5.200 251.287,5.605 251.602,6.100 251.672 C 6.650 251.751,6.980 252.060,6.950 252.469 C 6.920 252.863,7.112 253.055,7.418 252.938 C 8.184 252.644,9.469 253.455,9.712 254.387 C 9.937 255.246,9.159 256.078,8.889 255.268 C 8.803 255.008,8.569 254.896,8.370 255.019 C 8.170 255.142,8.230 255.483,8.504 255.779 C 8.777 256.074,9.180 256.205,9.400 256.069 C 10.104 255.635,10.813 255.656,10.536 256.103 C 10.366 256.378,10.512 256.443,10.934 256.281 C 11.373 256.112,11.600 256.230,11.600 256.627 C 11.600 257.112,11.440 257.142,10.766 256.782 C 9.990 256.366,9.201 256.534,9.679 257.013 C 10.129 257.462,11.774 257.565,12.025 257.159 C 12.191 256.891,12.379 256.968,12.532 257.366 C 12.703 257.812,12.542 258.000,11.987 258.000 C 11.554 258.000,11.200 258.178,11.200 258.395 C 11.200 258.613,11.598 258.748,12.084 258.695 C 12.653 258.634,13.019 258.849,13.113 259.300 C 13.193 259.685,13.055 260.000,12.806 260.000 C 12.557 260.000,12.456 259.832,12.583 259.628 C 12.709 259.423,12.643 259.150,12.434 259.021 C 11.475 258.428,11.754 259.598,12.814 260.614 C 13.466 261.238,14.000 261.551,14.000 261.308 C 14.000 261.065,13.775 260.786,13.500 260.688 C 12.616 260.372,13.528 259.895,14.534 260.148 C 15.187 260.311,15.575 260.754,15.717 261.496 C 15.936 262.633,15.630 263.390,15.312 262.500 C 15.214 262.225,14.935 262.000,14.692 262.000 C 14.449 262.000,14.765 262.537,15.393 263.193 C 16.337 264.178,16.641 264.300,17.143 263.893 C 17.652 263.479,17.706 263.517,17.476 264.130 C 17.315 264.560,17.436 265.094,17.773 265.430 C 18.511 266.168,19.041 266.173,18.430 265.436 C 17.794 264.669,18.508 264.299,19.385 264.940 C 20.021 265.405,20.029 265.514,19.468 266.075 C 18.615 266.928,20.692 269.131,21.566 268.299 C 21.993 267.892,22.040 267.967,21.818 268.700 C 21.639 269.294,21.714 269.600,22.040 269.600 C 22.311 269.600,22.409 269.724,22.257 269.876 C 21.846 270.287,25.653 274.000,26.485 274.000 C 26.878 274.000,27.200 274.270,27.200 274.600 C 27.200 274.930,27.470 275.200,27.800 275.200 C 28.130 275.200,28.400 275.450,28.400 275.755 C 28.400 276.074,28.998 276.423,29.800 276.574 C 30.570 276.718,31.200 277.055,31.200 277.322 C 31.200 277.589,31.560 278.032,32.000 278.307 C 32.440 278.582,32.800 278.998,32.800 279.232 C 32.800 279.729,33.996 281.000,34.464 281.000 C 35.047 281.000,35.979 282.686,36.072 283.910 C 36.132 284.703,36.339 285.045,36.679 284.914 C 36.963 284.805,37.104 284.567,36.991 284.386 C 36.879 284.204,36.970 283.942,37.193 283.804 C 37.559 283.578,37.774 284.098,37.647 284.900 C 37.621 285.065,37.870 285.200,38.200 285.200 C 38.533 285.200,38.800 285.556,38.800 286.000 C 38.800 286.533,39.067 286.800,39.600 286.800 C 40.040 286.800,40.403 286.935,40.406 287.100 C 40.438 288.677,41.263 288.420,43.469 286.143 C 50.621 278.764,70.809 258.074,77.100 251.675 C 81.115 247.591,84.400 244.236,84.400 244.219 C 84.400 244.151,102.041 226.199,108.433 219.763 C 114.524 213.628,115.213 212.799,115.128 211.691 C 115.076 211.011,114.891 210.544,114.717 210.651 C 114.440 210.823,114.200 209.200,114.364 208.266 C 114.396 208.082,113.874 208.052,113.202 208.199 C 112.100 208.442,111.940 208.348,111.552 207.234 C 111.315 206.555,110.965 206.000,110.773 206.000 C 110.582 206.000,110.519 205.754,110.635 205.454 C 110.783 205.067,110.518 204.921,109.722 204.954 C 109.105 204.979,108.598 204.820,108.594 204.600 C 108.579 203.670,107.919 203.087,107.528 203.657 C 107.253 204.060,107.194 203.994,107.302 203.400 C 107.382 202.960,107.662 202.645,107.924 202.700 C 108.186 202.755,108.400 202.642,108.400 202.449 C 108.400 201.928,107.221 201.045,106.924 201.343 C 106.782 201.484,106.877 201.600,107.133 201.600 C 107.390 201.600,107.600 201.780,107.600 202.000 C 107.600 202.901,105.601 202.416,105.539 201.500 C 105.506 201.005,105.436 200.420,105.385 200.200 C 105.334 199.980,105.269 199.530,105.240 199.200 C 105.195 198.682,105.138 198.679,104.822 199.178 C 104.598 199.532,104.606 200.038,104.842 200.478 C 105.099 200.958,105.089 201.200,104.814 201.200 C 104.586 201.200,104.400 200.919,104.400 200.576 C 104.400 200.207,104.212 200.069,103.938 200.238 C 103.631 200.428,103.586 200.346,103.804 199.994 C 104.042 199.609,103.949 199.534,103.466 199.719 C 103.018 199.891,102.800 199.768,102.800 199.345 C 102.800 198.955,103.024 198.800,103.387 198.940 C 104.180 199.244,104.441 198.716,103.794 198.118 C 103.383 197.738,103.221 197.769,103.031 198.263 C 102.825 198.799,102.690 198.811,102.095 198.345 C 101.454 197.842,101.446 197.859,102.000 198.565 C 102.533 199.245,102.533 199.308,102.000 199.132 C 101.670 199.023,101.286 198.409,101.147 197.767 C 101.008 197.125,100.873 196.915,100.847 197.300 C 100.780 198.296,100.138 198.167,99.852 197.100 C 99.480 195.713,99.547 195.494,100.257 195.766 C 100.826 195.985,100.842 195.924,100.377 195.309 C 99.467 194.104,97.957 192.710,97.768 192.899 C 97.669 192.998,98.068 193.559,98.655 194.145 C 99.241 194.732,99.589 195.344,99.428 195.505 C 99.267 195.667,98.888 195.461,98.587 195.049 C 98.280 194.629,97.775 194.401,97.440 194.529 C 96.685 194.819,96.098 193.234,96.800 192.800 C 97.147 192.586,97.159 192.422,96.843 192.226 C 96.599 192.076,96.400 192.143,96.400 192.376 C 96.400 192.609,96.220 192.800,96.000 192.800 C 95.780 192.800,95.597 192.485,95.594 192.100 C 95.590 191.601,95.497 191.543,95.270 191.900 C 95.023 192.289,94.781 192.260,94.176 191.770 C 93.749 191.424,93.609 191.245,93.864 191.372 C 94.518 191.697,95.646 191.198,95.348 190.715 C 95.195 190.469,94.968 190.524,94.756 190.857 C 94.482 191.290,94.411 191.293,94.406 190.876 C 94.403 190.588,94.197 190.478,93.948 190.632 C 93.672 190.803,93.573 190.695,93.694 190.356 C 93.968 189.587,93.295 188.400,92.586 188.400 C 92.264 188.400,92.000 188.141,92.000 187.824 C 92.000 187.507,91.822 187.137,91.605 187.003 C 91.378 186.863,91.311 187.023,91.447 187.379 C 91.807 188.316,89.762 188.182,88.708 187.200 C 88.236 186.760,87.613 186.400,87.325 186.400 C 87.036 186.400,86.778 186.220,86.750 186.000 C 86.723 185.780,86.655 185.420,86.600 185.200 C 86.545 184.980,86.478 184.620,86.450 184.400 C 86.423 184.180,86.123 184.000,85.784 184.000 C 85.277 184.000,85.260 183.901,85.684 183.439 C 86.047 183.046,86.249 183.016,86.365 183.339 C 86.456 183.593,86.816 184.022,87.165 184.292 C 87.726 184.727,87.730 184.832,87.200 185.186 C 86.710 185.514,86.765 185.589,87.500 185.594 C 88.756 185.602,88.622 184.758,87.147 183.375 C 86.317 182.596,85.834 182.369,85.714 182.700 C 85.615 182.975,85.349 183.200,85.124 183.200 C 84.899 183.200,84.813 182.942,84.934 182.627 C 85.089 182.224,84.919 182.100,84.359 182.208 C 83.132 182.444,82.400 182.002,82.400 181.025 C 82.400 180.361,82.173 180.144,81.500 180.168 C 80.981 180.187,80.642 179.988,80.700 179.700 C 80.755 179.425,80.451 179.200,80.024 179.200 C 79.081 179.200,78.714 178.690,79.041 177.836 C 79.389 176.930,80.000 177.049,80.000 178.024 C 80.000 178.477,80.180 178.736,80.401 178.599 C 80.948 178.261,80.146 176.800,79.414 176.800 C 79.107 176.800,78.785 176.395,78.698 175.900 C 78.554 175.076,78.513 175.062,78.212 175.740 M83.083 180.927 C 82.957 181.256,83.230 181.440,83.843 181.440 C 84.999 181.440,85.027 181.350,84.040 180.821 C 83.485 180.524,83.227 180.553,83.083 180.927 M92.000 188.787 C 92.000 189.001,92.270 189.071,92.600 188.945 C 92.930 188.818,93.200 188.874,93.200 189.070 C 93.200 189.266,92.750 189.463,92.200 189.508 C 91.650 189.554,91.200 189.402,91.200 189.172 C 91.200 188.941,90.992 188.881,90.738 189.038 C 90.452 189.215,90.385 189.148,90.562 188.862 C 90.908 188.302,92.000 188.246,92.000 188.787 M108.607 203.188 C 108.475 203.402,108.823 203.691,109.381 203.831 C 109.946 203.973,110.280 204.271,110.135 204.504 C 109.979 204.757,110.070 204.804,110.365 204.622 C 110.674 204.431,110.931 204.615,111.064 205.123 C 111.179 205.565,111.634 206.020,112.074 206.135 C 112.855 206.339,112.856 206.324,112.140 205.472 C 110.323 203.313,109.042 202.485,108.607 203.188 M112.400 207.400 C 111.992 207.891,112.020 208.000,112.551 208.000 C 112.908 208.000,113.200 207.730,113.200 207.400 C 113.200 207.070,113.132 206.800,113.049 206.800 C 112.966 206.800,112.674 207.070,112.400 207.400 M7.568 254.300 C 7.129 254.880,7.129 254.920,7.568 254.531 C 7.859 254.273,8.346 254.158,8.649 254.274 C 8.952 254.390,9.200 254.286,9.200 254.043 C 9.200 253.356,8.158 253.521,7.568 254.300 M23.744 269.801 C 23.635 270.086,23.766 270.455,24.035 270.621 C 24.358 270.821,24.421 270.757,24.220 270.432 C 23.998 270.073,24.142 270.082,24.758 270.467 C 25.789 271.111,25.838 271.484,24.882 271.413 C 24.162 271.360,21.927 270.000,22.560 270.000 C 22.746 270.000,22.694 269.755,22.445 269.455 C 22.080 269.014,22.180 268.945,22.968 269.096 C 23.558 269.209,23.865 269.487,23.744 269.801 M27.200 273.000 C 27.200 273.330,27.020 273.600,26.800 273.600 C 26.580 273.600,26.400 273.330,26.400 273.000 C 26.400 272.670,26.580 272.400,26.800 272.400 C 27.020 272.400,27.200 272.670,27.200 273.000 M31.188 279.015 C 30.755 279.536,30.992 279.932,32.739 281.616 C 33.872 282.709,34.800 283.771,34.800 283.978 C 34.800 284.184,34.940 284.440,35.112 284.546 C 35.369 284.705,35.415 283.862,35.232 282.327 C 35.200 282.051,33.736 281.456,33.000 281.420 C 32.780 281.409,32.578 281.175,32.550 280.900 C 32.523 280.625,32.477 280.226,32.450 280.013 C 32.423 279.799,32.105 279.738,31.745 279.876 C 31.292 280.050,31.154 279.954,31.295 279.564 C 31.408 279.254,31.716 279.049,31.980 279.110 C 32.244 279.170,32.345 279.035,32.206 278.810 C 31.873 278.272,31.791 278.288,31.188 279.015 M187.927 284.918 C 187.013 285.328,182.532 289.329,176.300 295.300 C 175.439 296.125,174.663 296.800,174.576 296.800 C 174.489 296.800,173.451 297.745,172.270 298.900 C 169.636 301.475,165.483 305.381,160.043 310.400 C 157.777 312.490,154.886 315.190,153.617 316.400 C 152.347 317.610,149.269 320.490,146.777 322.800 C 140.506 328.611,137.486 331.432,134.786 334.000 C 133.514 335.210,130.730 337.820,128.600 339.800 C 126.469 341.780,124.054 344.030,123.232 344.800 C 122.411 345.570,120.402 347.432,118.769 348.937 C 110.474 356.584,109.031 358.400,111.249 358.400 C 111.897 358.400,111.997 358.522,111.669 358.916 C 111.352 359.299,111.435 359.554,111.992 359.902 C 112.571 360.263,112.796 360.260,112.976 359.886 C 113.104 359.619,113.134 359.805,113.042 360.300 C 112.903 361.048,113.054 361.201,113.937 361.206 C 114.770 361.211,114.870 361.296,114.400 361.600 C 113.871 361.942,114.094 362.162,114.863 362.060 C 115.171 362.019,115.088 362.823,114.724 363.404 C 114.585 363.627,114.725 364.156,115.035 364.581 C 115.606 365.361,115.812 365.018,115.612 363.622 C 115.543 363.139,115.634 363.130,116.160 363.567 C 116.507 363.855,116.690 364.255,116.566 364.455 C 116.442 364.656,116.579 364.770,116.870 364.710 C 117.162 364.649,117.355 364.825,117.300 365.100 C 117.245 365.375,117.470 365.600,117.800 365.600 C 118.130 365.600,118.400 365.801,118.400 366.047 C 118.400 366.306,118.041 366.399,117.542 366.269 C 116.852 366.088,116.790 366.138,117.224 366.522 C 117.521 366.785,118.010 367.270,118.311 367.600 C 118.613 367.930,118.744 367.973,118.604 367.696 C 118.463 367.419,118.470 366.811,118.618 366.344 C 118.960 365.266,119.528 366.055,119.380 367.402 C 119.307 368.071,119.440 368.283,119.836 368.131 C 120.144 368.013,120.296 367.755,120.174 367.558 C 120.052 367.361,120.143 367.200,120.376 367.200 C 120.609 367.200,120.800 367.470,120.800 367.800 C 120.800 368.130,121.091 368.400,121.447 368.400 C 121.888 368.400,122.029 368.644,121.892 369.170 C 121.755 369.695,121.859 369.876,122.219 369.737 C 122.510 369.626,123.152 369.999,123.646 370.567 C 124.140 371.135,124.771 371.600,125.049 371.600 C 125.326 371.600,125.681 371.808,125.838 372.062 C 126.017 372.351,125.948 372.415,125.652 372.232 C 125.392 372.072,125.206 372.089,125.237 372.270 C 125.376 373.067,125.169 373.628,124.817 373.411 C 124.607 373.281,124.525 372.939,124.636 372.651 C 124.746 372.364,124.556 371.895,124.213 371.610 C 122.966 370.576,123.791 372.744,125.149 374.072 C 126.076 374.978,126.842 375.350,127.823 375.371 C 129.165 375.399,129.333 375.566,129.259 376.800 C 129.235 377.203,129.296 377.236,129.445 376.900 C 129.567 376.625,129.922 376.400,130.233 376.400 C 130.545 376.400,130.821 376.625,130.846 376.900 C 130.872 377.175,130.917 377.670,130.946 378.000 C 130.976 378.330,131.315 378.575,131.700 378.544 C 132.187 378.506,132.400 378.780,132.400 379.444 C 132.400 380.027,132.634 380.400,133.000 380.400 C 133.333 380.400,133.600 380.756,133.600 381.200 C 133.600 381.733,133.867 382.000,134.400 382.000 C 134.840 382.000,135.200 382.208,135.200 382.462 C 135.200 382.718,135.581 382.584,136.053 382.162 C 136.899 381.407,136.904 381.408,136.626 382.300 C 136.398 383.033,136.499 383.200,137.173 383.200 C 137.628 383.200,138.000 383.343,138.000 383.519 C 138.000 383.941,136.359 383.888,135.600 383.441 C 134.986 383.080,138.385 386.713,141.593 389.848 C 143.383 391.597,144.581 392.138,144.145 391.000 C 143.997 390.615,144.153 390.400,144.581 390.400 C 144.947 390.400,145.136 390.580,145.000 390.800 C 144.864 391.020,144.978 391.200,145.253 391.200 C 145.528 391.200,145.404 391.463,144.976 391.783 C 144.250 392.329,144.285 392.357,145.506 392.212 C 146.224 392.126,146.725 392.197,146.619 392.369 C 146.240 392.983,147.547 394.258,147.941 393.659 C 148.198 393.269,148.348 393.464,148.479 394.360 L 148.662 395.601 147.631 394.939 L 146.600 394.276 147.367 395.144 C 147.902 395.748,148.386 395.931,148.964 395.748 C 149.672 395.523,149.720 395.574,149.288 396.093 C 148.610 396.910,151.208 399.330,152.300 398.899 C 152.855 398.679,152.758 398.578,151.833 398.411 C 150.739 398.213,149.836 397.200,150.754 397.200 C 150.986 397.200,151.074 396.885,150.950 396.500 C 150.771 395.946,150.808 395.917,151.125 396.364 C 151.346 396.674,151.424 397.214,151.299 397.564 C 151.175 397.914,151.215 398.071,151.389 397.914 C 152.014 397.349,153.301 398.396,152.769 399.038 C 152.503 399.358,152.402 399.735,152.543 399.876 C 152.684 400.018,152.800 399.935,152.800 399.692 C 152.800 399.449,153.381 399.194,154.091 399.125 C 154.887 399.048,155.542 398.693,155.800 398.200 C 156.029 397.760,158.104 395.473,160.409 393.118 C 162.714 390.762,167.480 385.829,171.000 382.155 C 174.520 378.481,178.300 374.539,179.400 373.395 C 180.500 372.251,184.820 367.757,189.000 363.408 C 193.180 359.059,198.310 353.740,200.400 351.586 C 204.958 346.891,216.229 335.139,218.937 332.260 C 220.003 331.127,222.298 328.739,224.037 326.953 C 227.418 323.482,227.894 322.293,226.450 320.916 C 225.469 319.980,224.895 318.227,225.658 318.497 C 225.956 318.602,226.166 319.118,226.125 319.644 C 226.084 320.170,226.144 320.375,226.259 320.100 C 226.526 319.458,227.484 319.451,227.697 320.090 C 227.786 320.359,227.964 320.179,228.092 319.690 C 228.262 319.043,228.150 318.800,227.682 318.800 C 227.328 318.800,224.780 316.617,222.020 313.949 C 215.447 307.597,215.482 307.628,215.809 308.480 C 215.951 308.849,215.877 309.477,215.646 309.876 C 215.282 310.501,215.222 310.435,215.206 309.400 C 215.195 308.693,215.063 308.397,214.883 308.679 C 214.683 308.995,214.378 309.031,213.989 308.785 C 213.655 308.574,213.600 308.410,213.863 308.406 C 214.139 308.402,214.234 308.052,214.100 307.537 C 213.932 306.895,214.008 306.758,214.399 306.999 C 214.754 307.219,214.827 307.168,214.626 306.842 C 214.398 306.474,214.197 306.471,213.764 306.830 C 213.454 307.087,213.197 307.141,213.194 306.949 C 213.191 306.757,212.995 306.870,212.759 307.200 C 212.415 307.682,212.369 307.623,212.528 306.900 C 212.684 306.186,212.547 305.998,211.863 305.991 C 211.318 305.986,210.584 305.395,209.870 304.386 C 209.242 303.499,208.549 302.908,208.308 303.057 C 208.049 303.217,207.992 303.136,208.166 302.855 C 208.325 302.598,208.610 302.483,208.800 302.600 C 208.990 302.717,209.258 302.630,209.396 302.407 C 209.534 302.183,209.446 302.000,209.200 302.000 C 208.954 302.000,208.843 301.854,208.953 301.676 C 209.063 301.498,208.653 300.881,208.043 300.305 C 207.304 299.608,206.933 299.449,206.933 299.829 C 206.933 300.143,207.083 300.400,207.267 300.400 C 207.450 300.400,207.600 300.586,207.600 300.814 C 207.600 301.089,207.318 301.077,206.762 300.780 C 206.227 300.493,205.994 300.066,206.117 299.596 C 206.242 299.117,206.133 298.927,205.806 299.053 C 205.244 299.269,203.826 298.041,204.203 297.664 C 204.335 297.532,204.569 297.598,204.722 297.812 C 204.875 298.025,205.247 298.252,205.549 298.316 C 205.852 298.381,205.582 297.886,204.951 297.216 C 203.669 295.858,203.200 295.700,203.200 296.624 C 203.200 296.967,203.378 297.137,203.595 297.003 C 203.828 296.859,203.886 297.033,203.736 297.423 C 203.505 298.024,203.441 298.016,203.066 297.344 C 202.838 296.935,202.405 296.352,202.103 296.048 C 201.801 295.745,201.644 295.262,201.754 294.976 C 201.889 294.625,201.682 294.507,201.120 294.615 C 200.661 294.704,199.997 294.607,199.643 294.400 C 199.274 294.184,199.207 294.019,199.487 294.012 C 200.166 293.995,199.643 292.800,198.957 292.800 C 198.651 292.800,198.397 292.575,198.394 292.300 C 198.390 291.967,198.258 292.000,198.000 292.400 C 197.787 292.730,197.609 292.834,197.606 292.631 C 197.603 292.429,197.882 291.952,198.226 291.571 C 198.652 291.100,198.713 290.793,198.416 290.610 C 198.176 290.462,198.006 290.489,198.037 290.670 C 198.181 291.498,197.947 291.655,197.323 291.149 C 196.863 290.776,196.743 290.760,196.947 291.100 C 197.431 291.906,196.913 291.677,195.852 290.616 C 194.818 289.582,195.597 288.699,196.896 289.433 C 197.173 289.589,197.138 289.466,196.818 289.159 C 196.498 288.851,196.012 288.330,195.738 288.000 C 195.317 287.493,195.275 287.539,195.467 288.300 C 195.636 288.973,195.519 289.200,195.004 289.200 C 194.529 289.200,194.393 288.996,194.566 288.543 C 194.786 287.970,194.733 287.958,194.144 288.443 C 193.566 288.921,193.497 288.918,193.660 288.425 C 193.913 287.658,192.755 286.484,192.000 286.744 C 191.467 286.927,191.467 286.866,192.000 286.200 C 192.544 285.520,192.535 285.475,191.900 285.713 C 191.515 285.857,191.200 285.790,191.200 285.564 C 191.200 285.338,191.019 285.265,190.797 285.402 C 190.576 285.539,190.286 285.369,190.154 285.025 C 189.871 284.288,189.383 284.264,187.927 284.918 M200.006 292.704 C 200.016 293.192,200.567 293.793,201.100 293.900 C 201.786 294.037,201.731 293.890,200.800 293.093 C 200.360 292.716,200.003 292.541,200.006 292.704 M211.360 304.557 C 211.360 305.170,211.544 305.443,211.873 305.317 C 212.247 305.173,212.276 304.915,211.979 304.360 C 211.450 303.373,211.360 303.401,211.360 304.557 M217.200 310.000 C 217.200 310.220,216.930 310.400,216.600 310.400 C 216.270 310.400,216.000 310.220,216.000 310.000 C 216.000 309.780,216.270 309.600,216.600 309.600 C 216.930 309.600,217.200 309.780,217.200 310.000 M218.379 310.789 C 219.258 311.259,219.658 312.183,219.341 313.010 C 219.162 313.476,218.978 313.513,218.562 313.168 C 218.155 312.830,218.123 312.517,218.439 311.928 C 218.817 311.220,218.778 311.184,218.055 311.571 C 217.199 312.028,216.539 311.546,217.000 310.800 C 217.307 310.303,217.469 310.302,218.379 310.789 M221.704 314.480 C 221.651 314.643,221.966 314.968,222.404 315.202 C 223.468 315.771,223.414 316.284,222.300 316.191 C 221.735 316.144,221.421 315.871,221.456 315.458 C 221.494 315.001,221.189 314.798,220.456 314.794 C 219.707 314.790,219.559 314.687,219.945 314.442 C 220.381 314.166,220.387 314.062,219.973 313.924 C 219.650 313.817,219.562 313.475,219.740 313.013 C 220.031 312.253,221.959 313.694,221.704 314.480 M224.700 317.833 C 224.319 318.215,223.555 317.597,223.839 317.138 C 224.007 316.864,224.231 316.871,224.518 317.158 C 224.754 317.394,224.836 317.698,224.700 317.833 M122.500 370.730 C 122.102 370.982,122.106 371.192,122.520 371.758 C 122.996 372.409,123.040 372.382,123.040 371.435 C 123.040 370.866,123.031 370.403,123.020 370.406 C 123.009 370.409,122.775 370.555,122.500 370.730 M135.200 380.776 C 135.200 380.936,134.930 381.067,134.600 381.067 C 134.270 381.067,134.000 380.832,134.000 380.546 C 134.000 380.247,134.256 380.123,134.600 380.255 C 134.930 380.382,135.200 380.616,135.200 380.776 M140.399 386.800 C 140.606 386.800,140.657 387.115,140.513 387.500 C 140.275 388.135,140.320 388.144,141.002 387.600 C 141.605 387.119,141.686 387.112,141.411 387.568 C 141.157 387.990,141.234 388.072,141.714 387.888 C 142.155 387.719,142.293 387.814,142.149 388.190 C 141.873 388.909,143.448 389.809,143.736 389.097 C 143.847 388.824,143.948 388.960,143.962 389.400 C 144.010 390.885,143.432 391.263,142.600 390.292 C 142.180 389.801,141.838 389.310,141.841 389.200 C 141.849 388.791,140.989 388.090,140.697 388.267 C 140.531 388.368,140.272 388.124,140.122 387.725 C 139.972 387.326,139.619 386.820,139.338 386.600 C 138.913 386.268,138.863 385.429,139.205 384.400 C 139.242 384.290,139.441 384.785,139.648 385.500 C 139.854 386.215,140.192 386.800,140.399 386.800 " stroke="none" fill="#9bbbe3" fill-rule="evenodd"></path><path id="path1" d="M96.400 0.454 C 96.400 0.883,94.576 2.800,94.168 2.800 C 94.063 2.800,92.284 4.465,90.215 6.500 C 88.145 8.535,85.630 10.967,84.626 11.904 C 83.622 12.841,82.800 13.786,82.800 14.004 C 82.800 14.222,82.575 14.402,82.300 14.404 C 82.025 14.406,80.104 16.116,78.031 18.204 C 75.957 20.292,74.130 22.000,73.970 22.000 C 72.878 22.000,69.643 26.206,70.500 26.512 C 70.791 26.616,70.852 26.839,70.645 27.045 C 70.439 27.252,70.216 27.191,70.112 26.900 C 69.916 26.353,68.800 26.202,68.800 26.723 C 68.800 26.901,68.084 27.576,67.209 28.223 C 66.335 28.870,65.615 29.522,65.609 29.672 C 65.604 29.821,64.485 30.991,63.122 32.272 C 61.760 33.552,55.992 39.235,50.304 44.900 C 44.617 50.565,39.858 55.200,39.728 55.200 C 39.598 55.200,36.501 58.169,32.846 61.797 C 29.191 65.425,23.869 70.657,21.019 73.423 C 17.056 77.270,15.972 78.535,16.407 78.805 C 16.721 78.998,16.837 79.296,16.667 79.467 C 16.496 79.637,16.198 79.520,16.004 79.207 C 15.720 78.746,15.397 78.877,14.326 79.884 C 9.077 84.822,7.200 86.719,7.200 87.089 C 7.200 87.323,6.930 87.618,6.600 87.745 C 5.873 88.024,5.806 89.064,6.500 89.312 C 6.775 89.410,6.855 89.645,6.678 89.834 C 6.501 90.022,6.204 89.931,6.019 89.630 C 5.833 89.329,5.393 89.194,5.040 89.329 C 4.339 89.598,4.159 90.400,4.800 90.400 C 5.020 90.400,5.200 90.940,5.200 91.600 C 5.200 92.864,4.645 93.217,4.255 92.200 C 3.989 91.507,3.200 91.387,3.200 92.040 C 3.200 92.552,0.885 94.800,0.358 94.800 C 0.161 94.800,0.000 95.520,0.000 96.400 C 0.000 97.280,0.180 98.000,0.400 98.000 C 0.620 98.000,0.800 98.540,0.800 99.200 C 0.800 99.860,0.620 100.400,0.400 100.400 C 0.135 100.400,0.000 124.076,0.000 170.629 C 0.000 229.969,0.085 240.839,0.549 240.729 C 1.143 240.590,4.216 237.902,9.044 233.300 C 10.717 231.705,12.148 230.400,12.224 230.400 C 12.301 230.400,14.036 228.800,16.082 226.846 C 18.127 224.891,20.428 222.776,21.195 222.146 C 21.962 221.515,23.460 220.145,24.524 219.100 C 25.589 218.055,26.516 217.200,26.585 217.200 C 26.654 217.200,27.702 216.255,28.914 215.100 C 30.125 213.945,32.595 211.650,34.402 210.000 C 36.209 208.350,38.388 206.325,39.244 205.500 C 40.100 204.675,40.896 204.000,41.013 204.000 C 41.129 204.000,41.803 203.370,42.510 202.600 C 43.216 201.830,44.021 201.200,44.297 201.200 C 44.574 201.200,44.800 200.930,44.800 200.600 C 44.800 200.270,44.952 200.000,45.139 200.000 C 45.325 200.000,46.927 198.605,48.699 196.900 C 50.471 195.195,53.032 192.827,54.391 191.638 C 55.749 190.449,57.538 188.784,58.368 187.938 C 59.197 187.092,59.977 186.400,60.101 186.400 C 60.225 186.400,61.620 185.140,63.200 183.600 C 64.780 182.060,66.128 180.800,66.196 180.800 C 66.263 180.800,67.552 179.619,69.059 178.176 C 72.386 174.992,75.200 173.824,75.200 175.627 C 75.200 175.832,75.524 176.000,75.920 176.000 C 76.316 176.000,76.882 176.225,77.179 176.500 C 77.504 176.802,77.616 176.819,77.461 176.542 C 77.220 176.112,78.242 175.397,78.900 175.536 C 79.065 175.571,79.200 175.342,79.200 175.027 C 79.200 174.713,80.865 172.767,82.900 170.704 C 89.044 164.476,89.441 163.996,88.793 163.596 C 88.480 163.402,88.363 163.104,88.533 162.933 C 88.704 162.763,89.002 162.880,89.196 163.194 C 89.474 163.643,90.001 163.314,91.657 161.657 C 93.314 160.001,93.643 159.474,93.194 159.196 C 92.880 159.002,92.763 158.704,92.933 158.533 C 93.104 158.363,93.394 158.466,93.577 158.763 C 93.963 159.388,94.800 159.009,94.800 158.210 C 94.800 157.911,94.575 157.586,94.300 157.488 C 94.009 157.384,93.948 157.161,94.155 156.955 C 94.361 156.748,94.584 156.809,94.688 157.100 C 95.059 158.140,102.376 151.944,102.394 150.574 C 102.397 150.340,106.987 145.660,112.594 140.174 C 118.201 134.688,122.791 130.063,122.794 129.896 C 122.803 129.447,136.776 115.600,137.221 115.600 C 137.429 115.600,137.600 115.440,137.600 115.244 C 137.600 115.049,146.469 105.979,157.308 95.090 C 182.183 70.102,181.963 70.339,180.700 69.888 C 180.409 69.784,180.348 69.561,180.555 69.355 C 180.761 69.148,180.984 69.209,181.088 69.500 C 181.340 70.205,182.400 70.124,182.400 69.400 C 182.400 69.070,182.220 68.800,182.000 68.800 C 181.780 68.800,181.600 68.530,181.600 68.200 C 181.600 67.870,181.780 67.600,182.000 67.600 C 182.220 67.600,182.400 67.889,182.400 68.243 C 182.400 68.665,182.618 68.802,183.033 68.643 C 183.381 68.509,183.741 68.400,183.833 68.400 C 184.241 68.400,183.949 67.248,183.500 67.088 C 183.225 66.990,183.145 66.755,183.322 66.566 C 183.499 66.378,183.796 66.469,183.981 66.770 C 184.167 67.071,184.607 67.206,184.960 67.071 C 185.770 66.760,185.801 65.600,185.000 65.600 C 184.670 65.600,184.400 65.420,184.400 65.200 C 184.400 64.980,184.670 64.800,185.000 64.800 C 185.330 64.800,185.600 64.980,185.600 65.200 C 185.600 65.420,185.870 65.600,186.200 65.600 C 186.530 65.600,186.800 65.330,186.800 65.000 C 186.800 64.670,186.620 64.400,186.400 64.400 C 186.180 64.400,186.006 64.085,186.013 63.700 C 186.025 63.033,186.051 63.033,186.557 63.700 C 187.264 64.631,187.204 64.654,189.336 62.640 C 191.124 60.951,191.652 60.000,190.800 60.000 C 190.580 60.000,190.406 59.685,190.413 59.300 C 190.425 58.633,190.451 58.633,190.957 59.300 C 191.249 59.685,191.590 60.000,191.713 60.000 C 192.050 60.000,194.400 57.585,194.400 57.240 C 194.400 57.075,198.556 52.814,203.635 47.770 C 214.606 36.875,215.614 35.836,217.077 33.909 C 217.695 33.095,218.380 32.418,218.600 32.404 C 218.820 32.389,219.439 31.787,219.975 31.064 C 220.511 30.341,221.512 29.322,222.200 28.800 C 222.888 28.278,223.878 27.288,224.400 26.600 C 224.922 25.912,225.941 24.911,226.664 24.375 C 227.387 23.839,227.983 23.196,227.989 22.947 C 227.995 22.697,228.360 22.399,228.800 22.284 C 229.240 22.169,229.605 21.833,229.611 21.537 C 229.617 21.242,230.242 20.550,231.000 20.000 C 231.758 19.450,232.383 18.775,232.389 18.500 C 232.395 18.225,232.535 17.999,232.700 17.998 C 233.044 17.996,235.058 16.110,237.440 13.557 C 238.343 12.591,239.603 11.334,240.240 10.765 C 240.878 10.196,242.930 8.060,244.800 6.019 C 246.670 3.977,248.515 2.018,248.900 1.665 C 249.825 0.815,249.790 -0.000,248.828 0.000 C 248.345 0.000,247.991 0.337,247.882 0.900 L 247.709 1.800 247.654 0.900 L 247.600 0.000 173.833 -0.000 C 115.194 -0.000,100.025 0.103,99.865 0.500 C 99.704 0.900,99.657 0.900,99.632 0.500 C 99.591 -0.142,96.400 -0.187,96.400 0.454 M245.371 77.978 C 244.947 78.405,240.505 82.810,235.500 87.765 C 226.876 96.304,225.723 97.691,226.900 98.112 C 227.191 98.216,227.252 98.439,227.045 98.645 C 226.839 98.852,226.616 98.791,226.512 98.500 C 226.414 98.225,226.089 98.000,225.790 98.000 C 224.991 98.000,224.612 98.837,225.237 99.223 C 225.534 99.406,225.637 99.696,225.467 99.867 C 225.296 100.037,224.998 99.920,224.804 99.606 C 224.526 99.157,223.999 99.486,222.343 101.143 C 220.686 102.799,220.357 103.326,220.806 103.604 C 221.120 103.798,221.237 104.096,221.067 104.267 C 220.896 104.437,220.598 104.320,220.404 104.006 C 220.126 103.557,219.599 103.886,217.943 105.543 C 216.286 107.199,215.957 107.726,216.406 108.004 C 216.720 108.198,216.837 108.496,216.667 108.667 C 216.496 108.837,216.199 108.722,216.006 108.410 C 215.675 107.875,198.400 124.539,198.400 125.394 C 198.400 125.562,179.950 144.098,157.400 166.585 C 134.850 189.072,116.400 207.680,116.400 207.935 C 116.400 208.710,115.794 208.463,114.567 207.189 C 113.142 205.710,111.336 204.561,112.500 205.873 C 112.885 206.308,113.200 206.964,113.200 207.331 C 113.200 207.699,113.458 208.000,113.773 208.000 C 114.088 208.000,114.460 208.360,114.600 208.800 C 114.740 209.240,115.026 209.600,115.237 209.600 C 115.858 209.600,116.453 211.647,116.186 212.864 C 116.017 213.635,112.238 217.727,104.169 225.875 C 97.696 232.412,92.400 237.905,92.400 238.080 C 92.400 238.256,92.142 238.400,91.827 238.400 C 91.512 238.400,91.140 238.760,91.000 239.200 C 90.860 239.640,90.488 240.000,90.173 240.000 C 89.858 240.000,89.600 240.190,89.600 240.422 C 89.600 240.654,87.665 242.788,85.300 245.164 C 82.935 247.540,76.320 254.302,70.600 260.190 C 64.880 266.079,56.915 274.234,52.900 278.312 C 48.885 282.391,45.600 285.879,45.600 286.064 C 45.600 286.249,45.330 286.400,45.000 286.400 C 44.670 286.400,44.400 286.567,44.400 286.771 C 44.400 287.578,43.073 288.400,41.771 288.400 C 40.844 288.400,40.400 288.213,40.400 287.824 C 40.400 287.507,40.222 287.137,40.005 287.003 C 39.770 286.858,39.716 287.037,39.873 287.445 C 40.044 287.891,39.982 288.036,39.696 287.859 C 39.453 287.709,39.142 287.770,39.004 287.993 C 38.866 288.217,38.943 288.400,39.176 288.400 C 39.409 288.400,39.555 288.602,39.500 288.850 C 39.445 289.097,39.650 289.391,39.956 289.502 C 40.296 289.626,40.403 289.529,40.232 289.252 C 40.078 289.003,40.151 288.800,40.394 288.800 C 40.637 288.800,40.806 289.025,40.770 289.300 C 40.648 290.243,40.800 290.800,41.182 290.800 C 41.527 290.800,43.600 292.656,43.600 292.966 C 43.600 293.266,47.336 296.800,47.653 296.800 C 47.844 296.800,48.000 296.950,48.000 297.134 C 48.000 297.594,54.374 304.000,54.831 304.000 C 55.034 304.000,55.200 304.160,55.200 304.356 C 55.200 304.807,66.014 315.600,66.466 315.600 C 66.650 315.600,66.800 315.744,66.800 315.920 C 66.800 316.346,76.440 326.000,76.867 326.000 C 77.050 326.000,77.200 326.150,77.200 326.334 C 77.200 326.794,83.574 333.200,84.031 333.200 C 84.234 333.200,84.400 333.360,84.400 333.556 C 84.400 334.007,95.214 344.800,95.666 344.800 C 95.850 344.800,96.000 344.944,96.000 345.120 C 96.000 345.546,105.640 355.200,106.067 355.200 C 106.250 355.200,106.400 355.362,106.400 355.560 C 106.400 356.209,110.100 359.586,110.523 359.324 C 110.775 359.168,110.837 359.328,110.681 359.734 C 110.528 360.131,110.622 360.400,110.913 360.400 C 111.181 360.400,111.427 359.937,111.459 359.373 C 111.502 358.643,111.357 358.408,110.959 358.560 C 110.387 358.780,110.225 358.045,110.394 356.000 C 110.460 355.209,115.176 350.000,115.827 350.000 C 115.888 350.000,117.281 348.695,118.923 347.100 C 120.564 345.505,123.669 342.580,125.822 340.600 C 127.975 338.620,130.132 336.595,130.614 336.100 C 131.097 335.605,131.696 335.200,131.946 335.200 C 132.196 335.200,132.400 334.930,132.400 334.600 C 132.400 334.270,132.545 334.000,132.723 334.000 C 132.901 334.000,134.497 332.605,136.270 330.900 C 140.693 326.648,148.543 319.295,151.171 316.943 C 152.365 315.874,154.016 314.325,154.840 313.500 C 155.663 312.675,156.531 312.000,156.769 312.000 C 157.006 312.000,157.200 311.742,157.200 311.427 C 157.200 311.112,157.560 310.740,158.000 310.600 C 158.440 310.460,158.800 310.088,158.800 309.773 C 158.800 309.458,158.987 309.200,159.215 309.200 C 159.443 309.200,160.675 308.165,161.953 306.900 C 164.810 304.073,172.543 296.876,174.267 295.440 C 174.964 294.859,176.880 293.083,178.526 291.492 C 186.079 284.193,186.329 284.000,188.204 284.000 C 190.449 284.000,191.475 284.362,190.734 284.893 C 190.341 285.174,190.394 285.212,190.933 285.038 C 191.336 284.907,191.915 284.800,192.220 284.800 C 192.525 284.800,192.687 284.571,192.579 284.291 C 192.468 284.001,198.553 277.639,206.692 269.535 C 220.663 255.624,225.189 250.960,225.211 250.451 C 225.217 250.313,225.842 249.750,226.600 249.200 C 227.358 248.650,227.998 248.020,228.022 247.800 C 228.046 247.580,229.026 246.590,230.200 245.600 C 231.374 244.610,232.350 243.694,232.367 243.564 C 232.424 243.154,237.312 238.400,237.677 238.400 C 237.868 238.400,238.123 238.145,238.242 237.834 C 238.471 237.239,243.158 232.423,243.564 232.367 C 243.694 232.350,244.610 231.374,245.600 230.200 C 246.590 229.026,247.526 228.050,247.679 228.033 C 248.121 227.981,249.999 226.146,250.011 225.754 C 250.017 225.559,250.613 224.961,251.336 224.425 C 252.059 223.889,253.078 222.888,253.600 222.200 C 254.122 221.512,255.141 220.511,255.864 219.975 C 256.587 219.439,257.183 218.775,257.189 218.500 C 257.195 218.225,257.396 218.000,257.636 218.000 C 258.003 218.000,261.600 214.600,261.600 214.254 C 261.600 214.050,272.529 203.201,272.769 203.167 C 272.896 203.150,273.810 202.174,274.800 201.000 C 275.790 199.826,276.780 198.846,277.000 198.822 C 277.220 198.798,277.850 198.158,278.400 197.400 C 278.950 196.642,279.533 196.017,279.697 196.011 C 279.860 196.005,280.541 195.415,281.211 194.700 C 284.244 191.463,285.755 190.000,286.065 190.000 C 286.249 190.000,286.415 189.775,286.433 189.500 C 286.450 189.225,287.426 188.190,288.600 187.200 C 289.774 186.210,290.750 185.299,290.767 185.174 C 290.785 185.050,297.280 178.417,305.200 170.433 C 318.230 157.299,320.468 154.800,319.200 154.800 C 318.571 154.800,318.733 153.711,319.400 153.455 C 319.730 153.329,320.000 152.944,320.000 152.600 C 320.000 152.256,319.730 151.871,319.400 151.745 C 318.672 151.465,318.608 150.531,319.300 150.299 C 320.299 149.963,317.789 146.725,313.769 143.165 C 313.126 142.595,312.124 141.605,311.541 140.965 C 310.959 140.324,309.654 139.006,308.641 138.035 C 307.629 137.064,306.800 136.119,306.800 135.935 C 306.800 135.751,306.621 135.600,306.401 135.600 C 305.952 135.600,302.406 131.964,302.402 131.500 C 302.401 131.335,302.253 131.200,302.073 131.200 C 301.651 131.200,290.800 120.343,290.800 119.920 C 290.800 119.744,290.629 119.600,290.419 119.600 C 290.210 119.600,281.075 110.686,270.119 99.791 C 259.164 88.897,249.559 79.357,248.776 78.591 C 247.149 77.002,246.462 76.878,245.371 77.978 M2.400 96.200 C 2.400 96.750,2.220 97.200,2.000 97.200 C 1.780 97.200,1.600 96.750,1.600 96.200 C 1.600 95.650,1.780 95.200,2.000 95.200 C 2.220 95.200,2.400 95.650,2.400 96.200 M399.200 151.600 C 399.200 151.820,398.840 152.000,398.400 152.000 C 397.960 152.000,397.265 152.315,396.854 152.700 C 396.444 153.085,395.356 154.030,394.435 154.800 C 393.514 155.570,392.004 156.871,391.080 157.692 C 388.285 160.174,388.009 160.400,387.771 160.400 C 387.386 160.400,342.800 204.649,342.800 205.030 C 342.800 205.210,333.590 214.400,333.410 214.400 C 333.274 214.400,300.228 247.266,266.400 281.045 C 254.850 292.578,245.249 302.011,245.065 302.007 C 244.609 301.997,233.600 313.090,233.600 313.559 C 233.600 313.765,233.825 314.014,234.100 314.112 C 234.391 314.216,234.452 314.439,234.245 314.645 C 234.039 314.852,233.816 314.791,233.712 314.500 C 233.440 313.740,232.698 313.911,231.700 314.963 C 230.688 316.031,230.562 316.648,231.300 316.912 C 231.575 317.010,231.655 317.245,231.478 317.434 C 231.301 317.622,231.004 317.531,230.819 317.230 C 230.406 316.562,229.200 316.953,229.200 317.754 C 229.200 318.073,229.425 318.414,229.700 318.512 C 229.991 318.616,230.052 318.839,229.845 319.045 C 229.639 319.252,229.416 319.191,229.312 318.900 C 229.214 318.625,228.743 318.414,228.267 318.432 C 227.790 318.449,227.626 318.554,227.902 318.666 C 228.179 318.777,228.291 319.053,228.151 319.279 C 228.012 319.505,228.146 319.847,228.449 320.039 C 228.855 320.296,228.758 320.389,228.076 320.394 C 227.450 320.398,227.245 320.239,227.441 319.900 C 227.599 319.625,227.581 319.533,227.401 319.697 C 227.221 319.860,226.848 319.806,226.572 319.577 C 226.218 319.283,225.983 319.313,225.771 319.681 C 225.607 319.966,225.612 320.074,225.783 319.919 C 226.150 319.589,227.200 320.538,227.200 321.200 C 227.200 321.451,227.470 321.927,227.800 322.258 C 228.879 323.336,227.987 324.849,223.635 329.325 C 221.306 331.721,217.375 335.760,214.900 338.299 C 212.425 340.839,210.400 343.070,210.400 343.258 C 210.400 343.446,210.130 343.600,209.800 343.600 C 209.470 343.600,209.200 343.766,209.200 343.969 C 209.200 344.171,206.905 346.680,204.100 349.544 C 201.295 352.408,197.256 356.608,195.123 358.876 C 192.991 361.144,188.986 365.337,186.223 368.194 C 183.461 371.051,181.200 373.417,181.200 373.452 C 181.200 373.488,178.320 376.440,174.800 380.012 C 171.280 383.585,168.400 386.575,168.400 386.656 C 168.400 386.737,167.095 388.122,165.500 389.733 C 161.267 394.010,156.000 399.599,156.000 399.814 C 156.000 399.916,188.940 400.000,229.200 400.000 C 277.733 400.000,302.400 399.865,302.400 399.600 C 302.400 399.380,302.670 399.200,303.000 399.200 C 303.330 399.200,303.600 399.380,303.600 399.600 C 303.600 400.848,305.693 399.774,308.470 397.100 C 310.126 395.505,312.924 392.827,314.687 391.148 C 318.573 387.450,318.676 387.295,317.740 386.586 C 317.055 386.067,317.052 386.025,317.700 386.013 C 318.085 386.006,318.400 386.180,318.400 386.400 C 318.400 386.620,318.670 386.800,319.000 386.800 C 319.330 386.800,319.600 386.530,319.600 386.200 C 319.600 385.870,319.420 385.600,319.200 385.600 C 318.980 385.600,318.800 385.330,318.800 385.000 C 318.800 384.670,318.980 384.400,319.200 384.400 C 319.420 384.400,319.600 384.670,319.600 385.000 C 319.600 385.801,320.760 385.770,321.071 384.960 C 321.206 384.607,321.071 384.167,320.770 383.981 C 320.469 383.796,320.378 383.499,320.566 383.322 C 320.755 383.145,320.990 383.225,321.088 383.500 C 321.186 383.775,321.502 384.000,321.791 384.000 C 322.522 384.000,322.934 382.730,322.325 382.354 C 322.049 382.183,321.978 381.899,322.166 381.722 C 322.355 381.545,322.590 381.625,322.688 381.900 C 322.786 382.175,323.122 382.400,323.433 382.400 C 324.133 382.400,324.187 381.333,323.500 381.088 C 323.225 380.990,323.145 380.755,323.322 380.566 C 323.499 380.378,323.796 380.469,323.981 380.770 C 324.394 381.438,325.600 381.047,325.600 380.246 C 325.600 379.927,325.375 379.586,325.100 379.488 C 324.825 379.390,324.745 379.155,324.922 378.966 C 325.099 378.778,325.396 378.869,325.581 379.170 C 325.767 379.471,326.207 379.606,326.560 379.471 C 327.370 379.160,327.401 378.000,326.600 378.000 C 326.270 378.000,326.000 377.820,326.000 377.600 C 326.000 377.380,326.270 377.200,326.600 377.200 C 326.930 377.200,327.200 377.380,327.200 377.600 C 327.200 377.820,327.470 378.000,327.800 378.000 C 328.524 378.000,328.605 376.940,327.900 376.688 C 327.625 376.590,327.545 376.355,327.722 376.166 C 327.899 375.978,328.183 376.049,328.354 376.325 C 328.730 376.934,330.000 376.522,330.000 375.791 C 330.000 375.502,329.775 375.186,329.500 375.088 C 329.209 374.984,329.148 374.761,329.355 374.555 C 329.561 374.348,329.784 374.409,329.888 374.700 C 330.149 375.431,330.632 375.317,331.779 374.254 C 332.898 373.217,333.071 372.564,332.300 372.288 C 332.025 372.190,331.945 371.955,332.122 371.766 C 332.299 371.578,332.583 371.649,332.754 371.925 C 333.130 372.534,334.400 372.122,334.400 371.391 C 334.400 371.102,334.175 370.786,333.900 370.688 C 333.609 370.584,333.548 370.361,333.755 370.155 C 333.961 369.948,334.184 370.009,334.288 370.300 C 334.555 371.048,335.052 370.912,336.182 369.782 C 337.312 368.652,337.448 368.155,336.700 367.888 C 336.425 367.790,336.345 367.555,336.522 367.366 C 336.699 367.178,337.007 367.288,337.207 367.612 C 337.521 368.118,337.670 368.101,338.286 367.486 C 338.901 366.870,338.918 366.721,338.412 366.407 C 338.088 366.207,337.978 365.899,338.166 365.722 C 338.355 365.545,338.590 365.625,338.688 365.900 C 338.979 366.714,339.548 366.484,340.910 365.000 C 341.616 364.230,342.307 363.600,342.444 363.600 C 342.627 363.600,376.212 330.114,380.590 325.566 C 381.330 324.798,381.374 324.129,380.700 323.888 C 380.409 323.784,380.348 323.561,380.555 323.355 C 380.761 323.148,380.984 323.209,381.088 323.500 C 381.333 324.187,382.400 324.133,382.400 323.433 C 382.400 323.122,382.175 322.786,381.900 322.688 C 381.625 322.590,381.545 322.355,381.722 322.166 C 381.899 321.978,382.183 322.049,382.354 322.325 C 382.730 322.934,384.000 322.522,384.000 321.791 C 384.000 321.502,383.775 321.186,383.500 321.088 C 383.209 320.984,383.148 320.761,383.355 320.555 C 383.561 320.348,383.784 320.409,383.888 320.700 C 384.139 321.402,385.178 321.323,385.463 320.581 C 385.600 320.223,385.383 319.721,384.950 319.394 C 384.260 318.871,384.256 318.824,384.900 318.813 C 385.285 318.806,385.600 318.980,385.600 319.200 C 385.600 319.420,385.870 319.600,386.200 319.600 C 386.924 319.600,387.005 318.540,386.300 318.288 C 386.025 318.190,385.945 317.955,386.122 317.766 C 386.299 317.578,386.583 317.649,386.754 317.925 C 387.130 318.534,388.400 318.122,388.400 317.391 C 388.400 317.102,388.175 316.786,387.900 316.688 C 387.609 316.584,387.548 316.361,387.755 316.155 C 387.961 315.948,388.184 316.009,388.288 316.300 C 388.549 317.031,389.032 316.917,390.179 315.854 C 391.298 314.817,391.471 314.164,390.700 313.888 C 390.425 313.790,390.345 313.555,390.522 313.366 C 390.699 313.178,390.983 313.249,391.154 313.525 C 391.530 314.134,392.800 313.722,392.800 312.991 C 392.800 312.702,392.575 312.386,392.300 312.288 C 392.009 312.184,391.948 311.961,392.155 311.755 C 392.361 311.548,392.584 311.609,392.688 311.900 C 392.955 312.648,393.452 312.512,394.582 311.382 C 395.712 310.252,395.848 309.755,395.100 309.488 C 394.825 309.390,394.745 309.155,394.922 308.966 C 395.099 308.778,395.407 308.888,395.607 309.212 C 395.921 309.718,396.070 309.701,396.686 309.086 C 397.301 308.470,397.318 308.321,396.812 308.007 C 396.488 307.807,396.378 307.499,396.566 307.322 C 396.755 307.145,396.990 307.225,397.088 307.500 C 397.335 308.192,398.265 308.128,398.545 307.400 C 398.671 307.070,399.051 306.800,399.387 306.800 C 400.134 306.800,400.231 304.960,399.500 304.665 C 399.100 304.504,399.100 304.457,399.500 304.432 C 400.145 304.391,400.245 151.200,399.600 151.200 C 399.380 151.200,399.200 151.380,399.200 151.600 M78.691 176.507 C 78.574 176.812,78.864 177.000,79.451 177.000 C 80.598 177.000,80.616 176.944,79.640 176.421 C 79.091 176.128,78.827 176.152,78.691 176.507 M88.400 185.190 C 88.400 185.415,88.085 185.601,87.700 185.602 C 87.171 185.603,87.292 185.839,88.200 186.569 C 88.860 187.100,89.463 187.362,89.539 187.151 C 89.623 186.918,89.885 186.939,90.203 187.203 C 90.802 187.700,91.418 187.076,90.998 186.397 C 90.601 185.754,88.400 184.732,88.400 185.190 M91.704 188.221 C 91.431 188.516,91.341 188.838,91.504 188.937 C 91.667 189.035,92.023 188.874,92.296 188.579 C 92.569 188.284,92.659 187.962,92.496 187.863 C 92.333 187.765,91.977 187.926,91.704 188.221 M100.500 195.463 C 100.885 195.903,101.200 196.474,101.200 196.731 C 101.200 196.989,101.380 197.200,101.600 197.200 C 101.820 197.200,102.000 197.459,102.000 197.776 C 102.000 198.093,102.163 198.454,102.363 198.577 C 102.562 198.700,102.631 198.441,102.516 198.001 C 102.258 197.015,103.010 196.943,103.568 197.900 C 103.792 198.285,103.981 198.405,103.988 198.167 C 103.999 197.762,101.743 195.774,100.400 195.006 C 99.972 194.761,100.000 194.891,100.500 195.463 M2.885 248.641 C 2.252 249.326,2.829 250.593,4.303 251.753 C 4.840 252.175,5.709 252.984,6.235 253.551 C 7.165 254.554,7.209 254.561,7.895 253.834 C 8.283 253.423,8.365 253.219,8.079 253.381 C 7.544 253.681,5.200 251.583,5.200 250.804 C 5.200 250.582,4.851 250.400,4.425 250.400 C 3.866 250.400,3.616 250.078,3.525 249.242 C 3.421 248.273,3.316 248.174,2.885 248.641 M8.859 255.081 C 8.525 255.677,8.385 255.692,7.739 255.196 C 7.332 254.885,7.529 255.209,8.175 255.915 C 8.821 256.622,9.442 257.200,9.555 257.200 C 9.668 257.200,9.544 256.984,9.280 256.720 C 8.587 256.027,8.690 255.472,9.457 255.766 C 9.975 255.965,10.018 255.904,9.660 255.472 C 9.411 255.172,9.325 254.808,9.470 254.663 C 9.615 254.518,9.622 254.400,9.487 254.400 C 9.351 254.400,9.068 254.706,8.859 255.081 M26.000 274.426 C 26.000 274.660,26.990 275.842,28.200 277.052 C 29.410 278.262,30.400 279.410,30.400 279.602 C 30.400 279.795,30.543 280.041,30.718 280.149 C 31.113 280.393,31.074 278.912,30.655 277.694 C 30.483 277.196,30.174 276.892,29.968 277.020 C 29.540 277.284,28.400 276.273,28.400 275.629 C 28.400 275.393,28.130 275.200,27.800 275.200 C 27.470 275.200,27.200 274.930,27.200 274.600 C 27.200 274.270,26.930 274.000,26.600 274.000 C 26.270 274.000,26.000 274.192,26.000 274.426 M199.600 292.576 C 199.600 293.354,200.275 293.726,200.634 293.145 C 200.828 292.831,200.749 292.784,200.394 293.004 C 200.009 293.242,199.934 293.149,200.119 292.666 C 200.260 292.300,200.201 292.000,199.987 292.000 C 199.774 292.000,199.600 292.259,199.600 292.576 M113.757 362.633 C 113.891 362.981,114.000 363.401,114.000 363.566 C 114.000 363.731,114.254 363.867,114.566 363.867 C 115.040 363.867,115.032 363.716,114.520 362.933 C 113.819 361.864,113.399 361.699,113.757 362.633 M125.212 374.201 C 125.205 374.422,125.740 375.113,126.401 375.736 C 127.134 376.428,127.501 376.607,127.342 376.194 C 127.194 375.806,127.321 375.361,127.642 375.147 C 128.022 374.894,127.862 374.854,127.139 375.021 C 126.357 375.203,125.965 375.074,125.651 374.534 C 125.416 374.130,125.219 373.981,125.212 374.201 M128.148 376.484 C 127.858 376.953,128.757 378.000,129.449 378.000 C 129.752 378.000,130.000 378.211,130.000 378.468 C 130.000 378.949,135.417 384.400,135.894 384.400 C 136.040 384.400,135.944 384.184,135.680 383.920 C 135.416 383.656,135.200 383.116,135.200 382.720 C 135.200 382.267,134.904 382.000,134.400 382.000 C 133.867 382.000,133.600 381.733,133.600 381.200 C 133.600 380.760,133.425 380.400,133.211 380.400 C 132.633 380.400,129.147 376.809,129.372 376.446 C 129.478 376.274,129.295 376.133,128.965 376.133 C 128.635 376.133,128.267 376.291,128.148 376.484 M146.097 392.599 C 146.260 392.779,146.233 393.123,146.037 393.363 C 145.819 393.630,145.884 393.988,146.204 394.282 C 146.616 394.661,146.776 394.640,146.951 394.182 C 147.074 393.862,146.990 393.600,146.764 393.600 C 146.538 393.600,146.456 393.432,146.583 393.228 C 146.709 393.023,146.585 392.724,146.307 392.564 C 146.028 392.403,145.933 392.419,146.097 392.599 " stroke="none" fill="#4374bc" fill-rule="evenodd"></path><path id="path2" d="M71.572 177.091 C 70.597 177.912,68.900 179.413,67.800 180.427 C 66.700 181.441,64.910 183.065,63.822 184.035 C 61.189 186.385,60.969 186.587,57.765 189.601 C 56.244 191.032,53.020 194.000,50.600 196.196 C 48.180 198.392,45.230 201.091,44.044 202.194 C 42.858 203.297,41.401 204.650,40.806 205.200 C 40.211 205.750,38.654 207.190,37.346 208.400 C 36.037 209.610,33.276 212.130,31.210 214.000 C 29.143 215.870,26.974 217.850,26.390 218.400 C 25.805 218.950,24.443 220.209,23.363 221.197 C 19.398 224.828,13.466 230.289,6.635 236.600 C 4.253 238.800,1.789 240.960,1.159 241.400 C 0.529 241.840,0.011 242.335,0.007 242.500 C -0.011 243.266,1.031 242.613,3.199 240.500 C 5.355 238.398,9.596 234.465,12.600 231.781 C 13.884 230.634,20.186 224.839,23.019 222.200 C 25.710 219.693,30.990 214.875,32.044 213.965 C 33.092 213.061,39.159 207.429,42.688 204.085 C 43.915 202.922,45.478 201.503,46.160 200.931 C 47.605 199.720,53.885 193.978,57.240 190.800 C 58.517 189.590,60.947 187.340,62.638 185.800 C 64.330 184.260,66.746 182.049,68.008 180.887 C 71.100 178.039,73.631 176.119,74.600 175.886 C 75.243 175.731,75.198 175.684,74.372 175.646 C 73.722 175.617,72.693 176.148,71.572 177.091 M114.400 210.205 C 114.400 210.318,114.614 210.754,114.876 211.173 C 115.653 212.418,115.294 212.830,99.500 228.840 C 91.195 237.258,84.400 244.169,84.400 244.198 C 84.400 244.227,81.115 247.591,77.100 251.675 C 73.085 255.758,64.400 264.648,57.800 271.431 C 51.200 278.213,44.926 284.637,43.859 285.706 C 42.791 286.775,42.009 287.742,42.121 287.854 C 42.233 287.966,45.177 285.123,48.662 281.537 C 64.044 265.709,71.449 258.137,98.833 230.243 C 104.425 224.547,110.485 218.377,112.300 216.533 C 115.674 213.105,116.957 210.000,115.000 210.000 C 114.670 210.000,114.400 210.092,114.400 210.205 M37.055 285.000 C 36.892 285.427,37.082 285.591,37.713 285.568 C 38.201 285.551,38.374 285.446,38.098 285.334 C 37.821 285.223,37.697 284.967,37.821 284.766 C 37.945 284.565,37.876 284.400,37.666 284.400 C 37.457 284.400,37.182 284.670,37.055 285.000 M184.284 287.091 C 182.698 288.571,181.202 289.966,180.959 290.191 C 177.724 293.195,171.108 299.359,169.787 300.600 C 167.516 302.734,158.595 311.090,156.976 312.600 C 156.268 313.260,153.608 315.752,151.063 318.137 C 148.519 320.522,146.034 322.823,145.542 323.251 C 144.777 323.914,141.483 326.987,133.750 334.250 C 132.843 335.103,130.953 336.863,129.550 338.161 C 128.148 339.460,125.645 341.800,123.989 343.361 C 119.304 347.777,111.541 354.978,111.226 355.200 C 111.069 355.310,110.815 355.741,110.661 356.158 C 110.507 356.574,111.600 355.736,113.090 354.295 C 114.581 352.854,117.136 350.443,118.769 348.937 C 120.402 347.432,122.411 345.570,123.232 344.800 C 124.054 344.030,126.469 341.780,128.600 339.800 C 130.730 337.820,133.514 335.210,134.786 334.000 C 137.486 331.432,140.506 328.611,146.777 322.800 C 149.269 320.490,152.347 317.610,153.617 316.400 C 154.886 315.190,157.777 312.490,160.043 310.400 C 165.483 305.381,169.636 301.475,172.270 298.900 C 173.451 297.745,174.489 296.800,174.576 296.800 C 174.663 296.800,175.439 296.125,176.300 295.300 C 182.532 289.329,187.013 285.328,187.927 284.918 C 188.949 284.459,188.957 284.435,188.084 284.418 C 187.491 284.406,186.151 285.349,184.284 287.091 M227.200 322.853 C 227.200 323.378,225.983 324.955,224.037 326.953 C 222.298 328.739,220.003 331.127,218.937 332.260 C 216.229 335.139,204.958 346.891,200.400 351.586 C 198.310 353.740,193.180 359.059,189.000 363.408 C 184.820 367.757,180.500 372.251,179.400 373.395 C 178.300 374.539,174.520 378.481,171.000 382.155 C 167.480 385.829,162.715 390.762,160.411 393.118 C 156.342 397.278,154.833 399.200,155.636 399.200 C 155.850 399.200,156.132 398.922,156.263 398.581 C 156.393 398.241,157.153 397.288,157.950 396.464 C 158.748 395.640,163.540 390.657,168.600 385.391 C 173.660 380.124,179.802 373.742,182.249 371.208 C 184.695 368.674,187.125 366.128,187.649 365.551 C 188.564 364.541,198.999 353.693,212.008 340.226 C 227.865 323.812,227.600 324.105,227.600 322.958 C 227.600 322.431,227.510 322.000,227.400 322.000 C 227.290 322.000,227.200 322.384,227.200 322.853 M120.321 367.900 C 120.109 368.676,120.221 368.794,121.137 368.754 C 121.769 368.726,121.926 368.635,121.525 368.529 C 121.153 368.431,120.786 368.047,120.708 367.675 C 120.599 367.151,120.513 367.201,120.321 367.900 " stroke="none" fill="#749cd4" fill-rule="evenodd"></path><path id="path3" d="M72.600 175.200 C 72.160 175.393,70.567 176.731,69.059 178.175 C 67.552 179.619,66.263 180.800,66.196 180.800 C 66.128 180.800,64.780 182.060,63.200 183.600 C 61.620 185.140,60.225 186.400,60.101 186.400 C 59.977 186.400,59.197 187.092,58.368 187.938 C 57.538 188.784,55.749 190.449,54.391 191.638 C 53.032 192.827,50.471 195.195,48.699 196.900 C 46.927 198.605,45.325 200.000,45.139 200.000 C 44.952 200.000,44.800 200.276,44.800 200.614 C 44.800 201.046,45.130 200.898,45.916 200.114 C 46.530 199.501,47.925 198.206,49.016 197.236 C 50.107 196.265,51.990 194.546,53.200 193.415 C 54.410 192.284,57.740 189.216,60.600 186.598 C 63.460 183.980,65.999 181.649,66.243 181.419 C 68.782 179.015,72.315 176.064,73.329 175.500 C 74.609 174.788,74.060 174.562,72.600 175.200 M79.200 177.976 C 79.200 179.120,79.790 179.287,79.858 178.162 C 79.889 177.633,79.754 177.200,79.558 177.200 C 79.361 177.200,79.200 177.549,79.200 177.976 M80.613 178.378 C 80.461 178.624,80.567 178.771,80.852 178.710 C 81.133 178.649,81.394 178.825,81.432 179.100 C 81.469 179.375,81.523 179.774,81.550 179.987 C 81.578 180.201,81.901 180.259,82.269 180.118 C 82.744 179.936,82.875 180.028,82.720 180.433 C 82.599 180.747,82.768 181.254,83.096 181.560 C 83.615 182.046,83.652 181.994,83.390 181.158 C 82.972 179.830,80.961 177.816,80.613 178.378 M84.467 182.187 C 84.715 182.731,85.064 183.084,85.243 182.974 C 85.422 182.863,85.266 182.419,84.895 181.986 C 84.011 180.953,83.923 180.994,84.467 182.187 M85.684 183.439 C 85.311 183.845,85.299 184.000,85.640 184.000 C 85.900 184.000,86.342 184.315,86.623 184.699 C 86.904 185.084,87.284 185.249,87.467 185.067 C 87.649 184.884,87.513 184.524,87.164 184.267 C 86.815 184.010,86.456 183.593,86.365 183.339 C 86.249 183.016,86.047 183.046,85.684 183.439 M88.533 186.594 C 88.533 187.071,88.658 187.093,89.167 186.707 C 89.515 186.443,89.875 186.175,89.967 186.113 C 90.058 186.051,89.773 186.000,89.333 186.000 C 88.893 186.000,88.533 186.267,88.533 186.594 M90.200 187.600 C 89.491 187.905,89.525 187.947,90.500 187.972 C 91.105 187.987,91.600 187.820,91.600 187.600 C 91.600 187.131,91.293 187.131,90.200 187.600 M94.663 191.420 C 94.775 191.711,95.146 191.842,95.488 191.711 C 95.901 191.552,96.047 191.658,95.924 192.028 C 95.677 192.770,96.454 193.554,97.167 193.280 C 97.572 193.125,97.664 193.256,97.482 193.731 C 97.310 194.179,97.430 194.400,97.846 194.400 C 98.698 194.400,98.337 193.485,97.299 193.016 C 96.832 192.804,96.372 192.337,96.278 191.976 C 96.184 191.616,95.736 191.224,95.283 191.106 C 94.708 190.956,94.521 191.050,94.663 191.420 M98.871 194.784 C 98.942 195.106,99.315 195.725,99.700 196.160 C 100.085 196.595,100.411 197.232,100.425 197.575 C 100.440 197.926,100.625 197.764,100.847 197.207 C 101.124 196.514,101.109 196.170,100.799 196.066 C 100.555 195.985,99.992 195.532,99.548 195.059 C 99.041 194.519,98.789 194.417,98.871 194.784 M103.600 199.200 C 103.115 199.514,103.172 199.589,103.900 199.594 C 104.395 199.597,104.800 199.420,104.800 199.200 C 104.800 198.699,104.376 198.699,103.600 199.200 M106.248 201.123 C 105.934 201.630,106.579 202.384,107.066 202.079 C 107.382 201.881,107.357 201.656,106.977 201.304 C 106.683 201.031,106.355 200.950,106.248 201.123 M42.510 202.600 C 41.803 203.370,41.129 204.000,41.013 204.000 C 40.896 204.000,40.100 204.675,39.244 205.500 C 38.388 206.325,36.209 208.350,34.402 210.000 C 32.595 211.650,30.125 213.945,28.914 215.100 C 27.702 216.255,26.654 217.200,26.585 217.200 C 26.516 217.200,25.589 218.055,24.524 219.100 C 23.460 220.145,21.962 221.515,21.195 222.146 C 20.428 222.776,18.127 224.891,16.082 226.846 C 14.036 228.800,12.301 230.400,12.224 230.400 C 12.148 230.400,10.717 231.705,9.044 233.300 C 4.216 237.902,1.143 240.590,0.549 240.729 C -0.017 240.863,-0.234 241.610,0.300 241.587 C 0.808 241.566,4.959 237.918,10.882 232.288 C 11.526 231.676,15.142 228.346,18.918 224.888 C 22.695 221.430,26.070 218.330,26.419 218.000 C 27.534 216.947,31.718 213.111,35.799 209.400 C 42.244 203.540,44.625 201.218,44.197 201.209 C 43.976 201.204,43.216 201.830,42.510 202.600 M107.415 202.776 C 107.299 202.963,107.468 203.217,107.789 203.341 C 108.111 203.464,108.469 203.412,108.585 203.224 C 108.701 203.037,108.532 202.783,108.211 202.659 C 107.889 202.536,107.531 202.588,107.415 202.776 M108.986 204.377 C 109.137 204.621,109.562 204.771,109.930 204.711 C 110.359 204.640,110.580 204.852,110.544 205.300 C 110.514 205.685,110.634 206.000,110.811 206.000 C 110.988 206.000,111.288 206.464,111.477 207.031 C 111.820 208.061,111.821 208.061,112.555 207.250 C 113.273 206.456,113.268 206.432,112.330 206.197 C 111.803 206.065,111.197 205.561,110.985 205.078 C 110.773 204.595,110.175 204.140,109.656 204.066 C 109.041 203.979,108.807 204.088,108.986 204.377 M115.863 212.384 C 115.686 213.269,113.309 215.938,107.033 222.298 C 102.310 227.084,95.630 233.880,92.188 237.400 C 81.371 248.463,59.222 271.148,53.732 276.788 C 50.834 279.765,47.213 283.482,45.684 285.049 C 44.156 286.616,42.657 287.997,42.353 288.118 C 41.946 288.279,41.978 288.345,42.471 288.368 C 43.184 288.402,44.400 287.395,44.400 286.771 C 44.400 286.567,44.670 286.400,45.000 286.400 C 45.330 286.400,45.600 286.249,45.600 286.064 C 45.600 285.879,48.885 282.391,52.900 278.312 C 56.915 274.234,64.880 266.079,70.600 260.190 C 76.320 254.302,82.935 247.540,85.300 245.164 C 87.665 242.788,89.600 240.654,89.600 240.422 C 89.600 240.190,89.858 240.000,90.173 240.000 C 90.488 240.000,90.860 239.640,91.000 239.200 C 91.140 238.760,91.512 238.400,91.827 238.400 C 92.142 238.400,92.400 238.256,92.400 238.080 C 92.400 237.905,97.696 232.412,104.169 225.875 C 115.340 214.593,117.245 212.312,116.291 211.358 C 116.189 211.256,115.997 211.717,115.863 212.384 M0.000 246.167 C 0.000 246.515,0.285 246.800,0.633 246.800 C 1.340 246.800,1.217 245.939,0.475 245.692 C 0.214 245.605,0.000 245.818,0.000 246.167 M1.805 247.192 C 1.643 247.455,1.690 247.850,1.910 248.070 C 2.431 248.591,2.845 247.921,2.424 247.238 C 2.178 246.840,2.029 246.829,1.805 247.192 M7.773 254.444 C 7.388 255.067,7.858 255.319,8.614 254.896 C 9.216 254.559,9.220 254.493,8.657 254.277 C 8.310 254.144,7.912 254.219,7.773 254.444 M11.837 258.740 C 11.551 259.203,13.320 260.693,13.919 260.494 C 14.207 260.398,14.309 260.572,14.173 260.926 C 13.919 261.589,14.591 262.176,15.184 261.810 C 15.659 261.516,14.425 260.000,13.711 260.000 C 13.430 260.000,13.200 259.820,13.200 259.600 C 13.200 259.380,12.975 259.245,12.700 259.300 C 12.425 259.355,12.245 259.175,12.300 258.900 C 12.414 258.328,12.149 258.236,11.837 258.740 M15.475 262.258 C 15.208 262.526,16.387 263.944,17.291 264.439 C 17.828 264.734,17.931 264.685,17.753 264.222 C 17.627 263.894,17.316 263.665,17.062 263.713 C 16.808 263.761,16.628 263.620,16.662 263.400 C 16.738 262.907,15.764 261.969,15.475 262.258 M18.682 265.068 C 18.395 265.531,19.063 266.670,19.415 266.318 C 19.557 266.176,19.502 265.753,19.292 265.379 C 19.082 265.004,18.808 264.864,18.682 265.068 M19.863 266.704 C 19.765 266.867,19.926 267.223,20.221 267.496 C 20.516 267.769,20.838 267.859,20.937 267.696 C 21.035 267.533,20.874 267.177,20.579 266.904 C 20.284 266.631,19.962 266.541,19.863 266.704 M23.046 269.526 C 22.880 269.794,22.532 269.900,22.272 269.763 C 22.013 269.625,22.340 269.965,23.000 270.518 C 23.660 271.071,24.345 271.434,24.524 271.324 C 24.702 271.213,24.588 270.915,24.270 270.662 C 23.952 270.408,23.614 269.939,23.519 269.620 C 23.390 269.185,23.271 269.162,23.046 269.526 M31.200 279.600 C 31.200 280.101,31.624 280.101,32.400 279.600 C 32.885 279.286,32.828 279.211,32.100 279.206 C 31.605 279.203,31.200 279.380,31.200 279.600 M32.617 280.772 C 32.344 281.214,32.975 281.692,33.344 281.322 C 33.725 280.942,33.654 280.400,33.224 280.400 C 33.017 280.400,32.744 280.568,32.617 280.772 M35.200 283.653 C 35.200 283.902,35.965 284.861,36.900 285.784 C 38.713 287.574,40.119 288.374,39.747 287.405 C 39.625 287.089,39.260 286.956,38.897 287.095 C 38.425 287.276,38.327 287.167,38.518 286.669 C 38.659 286.301,38.601 285.978,38.387 285.950 C 38.174 285.923,37.775 285.869,37.500 285.832 C 37.225 285.794,37.041 285.558,37.092 285.306 C 37.142 285.055,36.814 284.732,36.363 284.588 C 35.871 284.432,35.629 284.102,35.759 283.764 C 35.878 283.454,35.801 283.200,35.587 283.200 C 35.374 283.200,35.200 283.404,35.200 283.653 M183.996 286.300 C 182.634 287.565,180.172 289.902,178.526 291.492 C 176.880 293.083,174.964 294.859,174.267 295.440 C 172.543 296.876,164.810 304.073,161.953 306.900 C 160.675 308.165,159.443 309.200,159.215 309.200 C 158.987 309.200,158.800 309.458,158.800 309.773 C 158.800 310.088,158.440 310.460,158.000 310.600 C 157.560 310.740,157.200 311.112,157.200 311.427 C 157.200 311.742,157.006 312.000,156.769 312.000 C 156.531 312.000,155.663 312.675,154.840 313.500 C 154.016 314.325,152.365 315.874,151.171 316.943 C 148.322 319.493,140.149 327.149,136.953 330.261 C 135.563 331.614,133.943 333.101,133.352 333.566 C 132.761 334.031,132.364 334.498,132.470 334.603 C 132.692 334.825,133.333 334.262,140.173 327.826 C 142.964 325.201,145.642 322.711,146.124 322.294 C 147.268 321.304,154.679 314.413,157.625 311.600 C 160.763 308.604,168.871 301.022,171.774 298.369 C 173.080 297.176,174.813 295.570,175.625 294.800 C 184.952 285.957,186.544 284.583,187.728 284.353 L 189.000 284.105 187.736 284.053 C 186.716 284.010,185.996 284.443,183.996 286.300 M190.840 284.904 C 191.146 285.232,191.653 285.401,191.967 285.280 C 192.372 285.125,192.464 285.256,192.282 285.731 C 192.141 286.099,192.199 286.423,192.413 286.450 C 192.626 286.478,193.008 286.522,193.262 286.550 C 193.516 286.578,193.774 286.944,193.836 287.365 C 193.984 288.376,195.668 289.911,196.372 289.676 C 196.751 289.550,196.848 289.698,196.676 290.145 C 196.538 290.505,196.599 290.822,196.813 290.850 C 197.026 290.877,197.408 290.923,197.662 290.950 C 197.916 290.978,198.172 291.331,198.232 291.737 C 198.384 292.775,198.800 293.088,198.800 292.165 C 198.800 291.360,196.786 289.200,196.036 289.200 C 195.796 289.200,195.600 288.996,195.600 288.747 C 195.600 288.057,192.327 284.949,191.242 284.609 C 190.406 284.347,190.354 284.385,190.840 284.904 M201.244 294.536 C 201.501 295.101,201.821 295.550,201.956 295.534 C 202.650 295.452,202.952 295.643,202.544 295.906 C 202.214 296.119,202.242 296.342,202.644 296.716 C 203.104 297.142,203.200 297.107,203.200 296.514 C 203.200 296.120,202.655 295.283,201.988 294.653 L 200.776 293.509 201.244 294.536 M205.294 298.384 C 205.443 299.204,206.069 299.867,206.696 299.867 C 207.115 299.867,207.122 299.775,206.732 299.433 C 206.459 299.195,206.001 298.730,205.713 298.400 C 205.264 297.886,205.204 297.884,205.294 298.384 M211.240 305.304 C 211.546 305.632,212.053 305.801,212.367 305.680 C 212.772 305.525,212.864 305.656,212.682 306.131 C 212.541 306.499,212.599 306.822,212.813 306.850 C 213.026 306.877,213.425 306.923,213.700 306.950 C 213.975 306.978,214.222 307.225,214.250 307.500 C 214.278 307.775,214.322 308.174,214.350 308.387 C 214.378 308.601,214.701 308.659,215.069 308.518 C 215.544 308.336,215.675 308.428,215.520 308.833 C 215.216 309.623,216.136 310.413,216.841 309.966 C 217.289 309.682,217.261 309.611,216.700 309.606 C 216.315 309.603,216.000 309.396,216.000 309.147 C 216.000 308.457,212.727 305.349,211.642 305.009 C 210.806 304.747,210.754 304.785,211.240 305.304 M217.000 310.800 C 216.757 311.193,217.289 311.363,218.323 311.225 C 218.610 311.186,218.814 311.390,218.775 311.677 C 218.637 312.711,218.807 313.243,219.200 313.000 C 219.805 312.626,219.685 312.085,218.800 311.200 C 217.915 310.315,217.374 310.195,217.000 310.800 M220.222 312.745 C 220.376 313.044,220.319 313.404,220.096 313.545 C 219.837 313.707,219.891 313.988,220.244 314.316 C 220.629 314.673,220.800 314.690,220.800 314.373 C 220.800 314.101,221.085 314.023,221.500 314.181 C 222.102 314.410,222.119 314.374,221.618 313.924 C 221.298 313.636,220.790 313.130,220.489 312.800 C 220.120 312.397,220.033 312.379,220.222 312.745 M221.437 315.140 C 221.320 315.329,221.669 315.685,222.213 315.933 C 222.780 316.192,223.200 316.222,223.200 316.005 C 223.200 315.469,221.691 314.729,221.437 315.140 M223.839 317.138 C 223.700 317.361,223.782 317.665,224.020 317.812 C 224.635 318.193,225.032 317.672,224.518 317.158 C 224.231 316.871,224.007 316.864,223.839 317.138 M225.260 318.780 C 225.432 319.296,225.981 319.388,226.030 318.910 C 226.047 318.750,225.844 318.548,225.580 318.460 C 225.316 318.372,225.172 318.516,225.260 318.780 M227.370 324.458 C 227.049 325.011,217.764 334.783,209.000 343.791 C 204.475 348.442,189.918 363.575,188.452 365.151 C 187.218 366.478,174.917 379.272,168.200 386.216 C 166.660 387.808,163.496 391.080,161.168 393.488 C 158.841 395.896,156.816 398.182,156.668 398.567 C 156.520 398.952,157.795 397.778,159.500 395.958 C 161.205 394.137,163.905 391.333,165.500 389.726 C 167.095 388.118,168.400 386.737,168.400 386.656 C 168.400 386.575,171.280 383.585,174.800 380.012 C 178.320 376.440,181.200 373.488,181.200 373.452 C 181.200 373.417,183.461 371.051,186.223 368.194 C 188.986 365.337,192.991 361.144,195.123 358.876 C 197.256 356.608,201.295 352.408,204.100 349.544 C 206.905 346.680,209.200 344.171,209.200 343.969 C 209.200 343.766,209.470 343.600,209.800 343.600 C 210.130 343.600,210.400 343.446,210.400 343.258 C 210.400 343.070,212.425 340.839,214.900 338.299 C 217.375 335.760,221.348 331.678,223.729 329.229 C 226.111 326.780,227.987 324.561,227.899 324.298 C 227.792 323.977,227.619 324.029,227.370 324.458 M130.573 336.107 C 130.119 336.598,127.983 338.620,125.827 340.600 C 123.671 342.580,120.564 345.505,118.923 347.100 C 117.281 348.695,115.888 350.000,115.827 350.000 C 115.766 350.000,114.487 351.170,112.985 352.600 C 111.483 354.030,110.422 355.200,110.627 355.200 C 110.832 355.200,112.379 353.868,114.066 352.241 C 115.752 350.614,118.362 348.155,119.866 346.777 C 121.369 345.399,123.860 343.069,125.400 341.600 C 126.940 340.131,129.151 338.090,130.313 337.064 C 131.476 336.039,132.196 335.203,131.913 335.207 C 131.631 335.211,131.028 335.616,130.573 336.107 M112.284 361.136 C 113.240 362.119,114.431 362.547,114.147 361.805 C 114.025 361.489,113.660 361.356,113.297 361.495 C 112.825 361.676,112.727 361.567,112.918 361.069 C 113.106 360.581,112.958 360.400,112.372 360.400 C 111.600 360.400,111.596 360.428,112.284 361.136 M116.693 365.600 C 117.070 366.040,117.608 366.400,117.889 366.400 C 118.170 366.400,118.400 366.604,118.400 366.853 C 118.400 367.543,121.673 370.651,122.758 370.991 C 123.594 371.253,123.646 371.215,123.160 370.696 C 122.854 370.368,122.347 370.199,122.033 370.320 C 121.628 370.475,121.536 370.344,121.718 369.869 C 121.859 369.501,121.801 369.178,121.587 369.150 C 121.374 369.123,120.975 369.069,120.700 369.032 C 120.425 368.994,120.241 368.758,120.292 368.506 C 120.342 368.255,120.014 367.932,119.563 367.788 C 119.112 367.645,118.823 367.318,118.921 367.062 C 119.161 366.435,118.318 365.694,117.628 365.924 C 117.249 366.050,117.152 365.901,117.324 365.455 C 117.504 364.986,117.353 364.800,116.791 364.800 C 116.046 364.800,116.041 364.839,116.693 365.600 M127.377 375.962 C 127.500 376.162,127.961 376.231,128.400 376.116 C 129.501 375.828,129.402 375.600,128.176 375.600 C 127.613 375.600,127.254 375.763,127.377 375.962 M135.695 382.485 C 135.019 383.300,136.150 384.410,136.897 383.663 C 137.233 383.327,137.236 383.200,136.909 383.200 C 136.661 383.200,136.400 382.902,136.329 382.538 C 136.214 381.948,136.144 381.943,135.695 382.485 M138.800 386.013 C 138.800 386.239,139.070 386.529,139.400 386.655 C 139.730 386.782,140.000 387.126,140.000 387.419 C 140.000 387.713,140.160 388.051,140.355 388.172 C 140.922 388.523,140.658 387.091,140.011 386.311 C 139.356 385.520,138.800 385.383,138.800 386.013 M142.019 389.764 C 142.339 390.024,142.836 390.498,143.124 390.818 C 143.574 391.319,143.610 391.302,143.381 390.700 C 143.213 390.260,143.304 390.000,143.624 390.000 C 144.539 390.000,143.699 389.540,142.554 389.415 C 141.644 389.315,141.545 389.379,142.019 389.764 M144.248 390.723 C 143.934 391.230,144.579 391.984,145.066 391.679 C 145.382 391.481,145.357 391.256,144.977 390.904 C 144.683 390.631,144.355 390.550,144.248 390.723 M147.029 394.300 C 147.228 394.465,147.503 394.750,147.640 394.934 C 147.777 395.117,147.998 394.982,148.132 394.634 C 148.307 394.177,148.136 394.000,147.521 394.000 C 147.051 394.000,146.830 394.135,147.029 394.300 M149.867 396.667 C 149.488 397.046,151.115 398.497,151.670 398.275 C 152.013 398.138,151.945 398.052,151.476 398.032 C 151.078 398.014,150.835 397.865,150.934 397.700 C 151.160 397.327,150.167 396.366,149.867 396.667 M152.032 399.467 C 152.053 399.960,152.134 400.022,152.280 399.655 C 152.463 399.194,152.556 399.194,152.879 399.655 C 153.195 400.105,153.234 400.100,153.105 399.625 C 152.871 398.757,151.995 398.628,152.032 399.467 " stroke="none" fill="#5c84c4" fill-rule="evenodd"></path><path id="path4" d="M71.449 176.800 C 70.384 177.680,69.639 178.400,69.793 178.400 C 69.947 178.400,70.797 177.780,71.683 177.022 C 72.569 176.264,73.677 175.568,74.147 175.476 C 74.949 175.319,74.952 175.306,74.193 175.254 C 73.749 175.225,72.514 175.920,71.449 176.800 M65.200 182.453 L 61.800 185.693 65.106 182.799 C 68.071 180.203,69.094 179.188,68.724 179.206 C 68.656 179.210,67.070 180.671,65.200 182.453 M57.689 189.214 C 56.309 190.526,55.324 191.600,55.502 191.600 C 55.680 191.600,56.894 190.520,58.200 189.200 C 61.252 186.115,60.941 186.124,57.689 189.214 M52.585 194.100 L 50.600 196.200 52.792 194.200 C 53.997 193.100,55.062 192.155,55.158 192.100 C 55.255 192.045,55.162 192.000,54.952 192.000 C 54.742 192.000,53.677 192.945,52.585 194.100 M48.300 197.839 C 47.255 198.846,46.400 199.782,46.400 199.920 C 46.400 200.057,47.300 199.283,48.400 198.200 C 50.232 196.396,50.582 195.991,50.300 196.005 C 50.245 196.007,49.345 196.833,48.300 197.839 M42.981 202.900 L 41.400 204.600 43.100 203.019 C 44.035 202.149,44.800 201.384,44.800 201.319 C 44.800 201.016,44.452 201.319,42.981 202.900 M38.400 207.000 C 37.285 207.990,36.514 208.793,36.687 208.784 C 37.048 208.766,40.993 205.200,40.652 205.200 C 40.528 205.200,39.515 206.010,38.400 207.000 M33.497 211.480 C 32.123 212.734,30.927 213.943,30.838 214.166 C 30.749 214.390,31.559 213.740,32.638 212.723 C 33.717 211.707,35.050 210.504,35.600 210.051 C 36.150 209.597,36.463 209.221,36.297 209.213 C 36.130 209.206,34.870 210.226,33.497 211.480 M28.581 216.100 L 27.000 217.800 28.700 216.219 C 29.635 215.349,30.400 214.584,30.400 214.519 C 30.400 214.216,30.052 214.519,28.581 216.100 M113.200 215.472 C 112.313 216.410,112.297 216.478,113.053 216.076 C 113.522 215.826,114.011 215.347,114.140 215.011 C 114.454 214.194,114.368 214.236,113.200 215.472 M24.400 219.886 L 22.200 222.147 24.200 220.395 C 25.927 218.882,27.114 217.572,26.720 217.612 C 26.654 217.619,25.610 218.642,24.400 219.886 M110.000 218.732 C 109.094 219.615,109.083 219.664,109.878 219.251 C 110.360 219.001,110.873 218.605,111.018 218.371 C 111.510 217.575,111.002 217.755,110.000 218.732 M106.587 222.500 L 104.200 225.000 106.700 222.613 C 109.022 220.395,109.383 220.000,109.087 220.000 C 109.026 220.000,107.901 221.125,106.587 222.500 M16.708 226.879 C 14.009 229.342,11.634 231.637,11.431 231.979 C 11.228 232.320,12.128 231.594,13.431 230.365 C 15.644 228.277,21.595 222.813,21.967 222.528 C 22.058 222.458,22.017 222.400,21.875 222.400 C 21.733 222.400,19.408 224.415,16.708 226.879 M99.191 229.881 C 96.666 232.456,95.230 234.021,96.000 233.360 C 97.634 231.956,104.227 225.200,103.962 225.200 C 103.864 225.200,101.717 227.306,99.191 229.881 M8.300 234.629 C 7.475 235.411,6.800 236.166,6.800 236.306 C 6.800 236.447,7.520 235.859,8.400 235.000 C 9.864 233.571,10.178 233.194,9.900 233.203 C 9.845 233.205,9.125 233.847,8.300 234.629 M3.381 239.300 L 1.800 241.000 3.500 239.419 C 4.435 238.549,5.200 237.784,5.200 237.719 C 5.200 237.416,4.852 237.719,3.381 239.300 M87.775 241.700 L 86.600 243.000 87.900 241.825 C 89.112 240.730,89.384 240.400,89.075 240.400 C 89.006 240.400,88.421 240.985,87.775 241.700 M81.000 248.400 C 78.146 251.260,75.915 253.600,76.041 253.600 C 76.282 253.600,78.162 251.771,83.391 246.448 C 85.145 244.662,86.493 243.200,86.385 243.200 C 86.277 243.200,83.854 245.540,81.000 248.400 M74.006 255.394 C 73.263 256.161,72.732 256.842,72.827 256.908 C 72.922 256.974,73.670 256.346,74.488 255.514 C 75.307 254.681,75.837 254.000,75.667 254.000 C 75.496 254.000,74.749 254.627,74.006 255.394 M71.105 258.429 C 70.514 258.773,69.344 260.400,69.687 260.400 C 69.751 260.400,70.312 259.860,70.935 259.200 C 72.155 257.907,72.178 257.804,71.105 258.429 M68.742 260.761 C 68.664 260.987,65.558 264.238,61.840 267.986 C 58.123 271.734,55.258 274.800,55.474 274.800 C 55.691 274.800,56.381 274.215,57.008 273.500 C 57.636 272.785,60.666 269.636,63.743 266.502 C 66.820 263.368,69.235 260.702,69.110 260.577 C 68.986 260.452,68.820 260.535,68.742 260.761 M49.894 280.306 C 47.092 283.114,44.800 285.532,44.800 285.679 C 44.800 285.826,47.095 283.605,49.900 280.742 C 52.705 277.880,55.075 275.462,55.167 275.369 C 55.258 275.276,55.256 275.200,55.161 275.200 C 55.066 275.200,52.696 277.498,49.894 280.306 M184.300 286.608 C 183.035 287.813,182.000 288.929,182.000 289.087 C 182.000 289.245,183.121 288.301,184.490 286.987 C 185.860 285.674,187.060 284.555,187.157 284.500 C 187.254 284.445,187.168 284.404,186.967 284.408 C 186.765 284.413,185.565 285.403,184.300 286.608 M178.581 292.100 L 177.000 293.800 178.700 292.219 C 180.281 290.748,180.584 290.400,180.281 290.400 C 180.216 290.400,179.451 291.165,178.581 292.100 M172.515 297.610 C 171.589 298.485,170.967 299.200,171.134 299.200 C 171.301 299.200,172.141 298.480,173.000 297.600 C 175.010 295.541,174.700 295.548,172.515 297.610 M167.638 302.300 C 165.217 304.750,165.642 304.423,169.542 300.835 C 170.281 300.156,170.754 299.600,170.595 299.600 C 170.436 299.600,169.105 300.815,167.638 302.300 M163.544 305.912 C 163.206 306.290,161.711 307.747,160.221 309.148 C 158.731 310.549,157.688 311.629,157.903 311.548 C 158.546 311.304,164.523 305.589,164.333 305.399 C 164.236 305.303,163.881 305.534,163.544 305.912 M153.781 315.300 L 152.200 317.000 153.900 315.419 C 155.481 313.948,155.784 313.600,155.481 313.600 C 155.416 313.600,154.651 314.365,153.781 315.300 M147.673 320.850 C 146.723 321.746,146.005 322.538,146.076 322.610 C 146.148 322.681,147.050 321.944,148.080 320.970 C 149.110 319.997,149.829 319.205,149.677 319.210 C 149.525 319.216,148.623 319.953,147.673 320.850 M227.654 322.906 C 227.614 323.732,226.545 325.100,223.435 328.306 C 217.982 333.929,217.782 334.218,222.541 329.600 C 227.202 325.077,228.113 323.900,227.882 322.699 C 227.735 321.933,227.701 321.964,227.654 322.906 M143.177 325.110 L 141.000 327.400 143.192 325.400 C 144.397 324.300,145.462 323.355,145.558 323.300 C 145.655 323.245,145.648 323.114,145.543 323.010 C 145.439 322.905,144.374 323.850,143.177 325.110 M140.341 327.475 C 140.263 327.654,138.897 329.029,137.306 330.531 C 135.715 332.033,134.570 333.203,134.762 333.131 C 135.411 332.886,140.877 327.544,140.680 327.346 C 140.572 327.238,140.419 327.296,140.341 327.475 M133.144 334.366 C 132.625 334.787,132.290 335.201,132.400 335.287 C 132.510 335.373,133.034 335.029,133.563 334.522 C 134.730 333.406,134.455 333.303,133.144 334.366 M212.231 340.000 C 209.409 342.860,207.210 345.200,207.345 345.200 C 207.479 345.200,208.447 344.326,209.495 343.257 C 216.624 335.988,217.759 334.800,217.571 334.800 C 217.455 334.800,215.052 337.140,212.231 340.000 M127.157 340.100 C 124.608 342.575,123.709 343.519,125.161 342.197 C 129.262 338.463,132.220 335.610,131.996 335.605 C 131.884 335.602,129.707 337.625,127.157 340.100 M119.100 347.418 C 117.615 348.848,116.400 350.132,116.400 350.272 C 116.400 350.553,121.720 345.580,121.933 345.100 C 122.201 344.497,121.747 344.869,119.100 347.418 M203.012 349.595 L 199.823 353.000 203.193 349.715 C 205.047 347.908,206.482 346.376,206.382 346.310 C 206.282 346.243,204.765 347.722,203.012 349.595 M197.728 355.000 C 196.808 355.990,196.170 356.800,196.309 356.800 C 196.447 356.800,197.326 355.990,198.261 355.000 C 199.197 354.010,199.835 353.200,199.681 353.200 C 199.526 353.200,198.648 354.010,197.728 355.000 M191.992 361.019 C 189.906 363.120,188.470 364.713,188.800 364.559 C 189.412 364.274,196.302 357.200,195.967 357.200 C 195.867 357.200,194.078 358.919,191.992 361.019 M187.306 365.796 C 187.123 366.124,184.925 368.464,182.421 370.996 C 179.918 373.528,178.001 375.600,178.161 375.600 C 178.321 375.600,179.448 374.565,180.665 373.300 C 181.882 372.035,184.142 369.695,185.686 368.100 C 187.230 366.505,188.301 365.200,188.066 365.200 C 187.832 365.200,187.490 365.468,187.306 365.796 M174.800 379.000 C 173.161 380.650,171.910 382.000,172.020 382.000 C 172.130 382.000,173.561 380.650,175.200 379.000 C 176.839 377.350,178.090 376.000,177.980 376.000 C 177.870 376.000,176.439 377.350,174.800 379.000 M170.041 383.814 C 168.628 385.424,168.327 386.233,169.700 384.734 C 171.100 383.204,171.717 382.400,171.490 382.400 C 171.376 382.400,170.724 383.036,170.041 383.814 M162.191 392.020 C 160.436 393.791,159.270 395.115,159.600 394.963 C 160.205 394.684,165.896 388.800,165.561 388.800 C 165.462 388.800,163.945 390.249,162.191 392.020 M154.400 399.600 C 154.400 399.820,154.670 400.000,155.000 400.000 C 155.330 400.000,155.600 399.820,155.600 399.600 C 155.600 399.380,155.330 399.200,155.000 399.200 C 154.670 399.200,154.400 399.380,154.400 399.600 " stroke="none" fill="#6c94cc" fill-rule="evenodd"></path></g></svg>