<svg height="512" viewBox="0 0 24 24" width="512" xmlns="http://www.w3.org/2000/svg"><g id="no_image"><g><path d="m19 4h-14c-1.654 0-3 1.346-3 3v10c0 1.654 1.346 3 3 3h14c1.654 0 3-1.346 3-3v-10c0-1.654-1.346-3-3-3z" fill="#bbdefb"/><g fill="#64b5f6"><path d="m21.641 15.232-4.465-3.724c-1.199-.987-3.204-.894-4.293.194l-2.883 2.884-.883-.883c-1.123-1.123-3.112-1.123-4.234 0l-2.59 2.59c-.188.187-.293.441-.293.707 0 1.654 1.346 3 3 3h14c1.654 0 3-1.346 3-3v-1c0-.297-.132-.578-.359-.768z"/><circle cx="7.5" cy="9.5" r="2.5"/></g></g><g><path d="m21 22c-.256 0-.512-.098-.707-.293l-18-18c-.391-.391-.391-1.023 0-1.414s1.023-.391 1.414 0l18 18c.391.391.391 1.023 0 1.414-.195.195-.451.293-.707.293z" fill="#2196f3"/></g></g></svg>